<svg width="560" height="520" viewBox="0 0 560 520" fill="none" xmlns="http://www.w3.org/2000/svg">
<rect width="560" height="520" rx="16" fill="#071B15"/>
<rect width="560" height="520" rx="16" fill="url(#paint0_radial_3022_12202)" fill-opacity="0.2"/>
<rect x="0.5" y="0.5" width="559" height="519" rx="15.5" stroke="white" stroke-opacity="0.1"/>
<g filter="url(#filter0_b_3022_12202)">
<rect x="40" y="158" width="482.277" height="205.155" rx="23.3548" fill="url(#paint1_linear_3022_12202)" fill-opacity="0.3"/>
<rect x="40" y="158" width="482.277" height="205.155" rx="23.3548" fill="url(#paint2_radial_3022_12202)" fill-opacity="0.1"/>
<rect x="40.5839" y="158.584" width="481.11" height="203.987" rx="22.771" stroke="url(#paint3_linear_3022_12202)" stroke-width="1.16774"/>
<path d="M67.2791 195.355V190.464L67.3772 191.151L63.4115 185.546H65.5415L68.5683 189.89L67.9097 189.848L70.6422 185.546H72.6881L68.8906 191.305L69.1008 190.352V195.355H67.2791ZM76.0069 195.495C75.2689 195.495 74.6103 195.331 74.0311 195.005C73.4519 194.668 72.9942 194.21 72.6578 193.631C72.3215 193.052 72.1534 192.393 72.1534 191.655C72.1534 190.917 72.3215 190.259 72.6578 189.68C72.9942 189.1 73.4519 188.647 74.0311 188.32C74.6103 187.984 75.2689 187.816 76.0069 187.816C76.7356 187.816 77.3895 187.984 77.9687 188.32C78.5479 188.647 79.001 189.1 79.328 189.68C79.6643 190.259 79.8325 190.917 79.8325 191.655C79.8325 192.393 79.6643 193.052 79.328 193.631C79.001 194.21 78.5479 194.668 77.9687 195.005C77.3895 195.331 76.7356 195.495 76.0069 195.495ZM76.0069 193.968C76.4086 193.968 76.7636 193.865 77.0719 193.659C77.3895 193.454 77.6371 193.178 77.8146 192.833C78.0014 192.487 78.0902 192.094 78.0808 191.655C78.0902 191.207 78.0014 190.81 77.8146 190.464C77.6371 190.119 77.3895 189.848 77.0719 189.652C76.7636 189.446 76.4086 189.343 76.0069 189.343C75.6052 189.343 75.2409 189.446 74.9139 189.652C74.5963 189.848 74.3487 190.123 74.1712 190.478C73.9937 190.824 73.905 191.216 73.905 191.655C73.905 192.094 73.9937 192.487 74.1712 192.833C74.3487 193.178 74.5963 193.454 74.9139 193.659C75.2409 193.865 75.6052 193.968 76.0069 193.968ZM83.9386 195.495C83.4061 195.495 82.9436 195.378 82.5513 195.145C82.1589 194.902 81.86 194.561 81.6545 194.122C81.4489 193.673 81.3462 193.141 81.3462 192.524V187.97H83.0698V192.16C83.0698 192.552 83.1305 192.889 83.2519 193.169C83.3734 193.44 83.5509 193.65 83.7844 193.799C84.018 193.949 84.2982 194.024 84.6252 194.024C84.8681 194.024 85.0876 193.986 85.2838 193.911C85.4893 193.827 85.6668 193.715 85.8163 193.575C85.9658 193.426 86.0825 193.253 86.1666 193.057C86.2507 192.851 86.2927 192.632 86.2927 192.398V187.97H88.0163V195.355H86.3348L86.3067 193.813L86.615 193.645C86.5029 194 86.3114 194.318 86.0405 194.598C85.7789 194.869 85.466 195.089 85.1016 195.257C84.7373 195.416 84.3496 195.495 83.9386 195.495ZM90.0365 195.355V187.97H91.732L91.7601 190.324L91.5218 189.792C91.6246 189.418 91.8021 189.082 92.0543 188.783C92.3066 188.484 92.5962 188.25 92.9231 188.082C93.2594 187.905 93.6098 187.816 93.9741 187.816C94.1329 187.816 94.2824 187.83 94.4225 187.858C94.572 187.886 94.6934 187.919 94.7868 187.956L94.3244 189.848C94.2217 189.792 94.0955 189.745 93.9461 189.708C93.7966 189.67 93.6471 189.652 93.4977 189.652C93.2641 189.652 93.0399 189.698 92.825 189.792C92.6195 189.876 92.4374 189.997 92.2785 190.156C92.1197 190.315 91.9936 190.502 91.9002 190.717C91.8161 190.922 91.7741 191.156 91.7741 191.417V195.355H90.0365ZM104.285 195.439C103.51 195.439 102.819 195.275 102.211 194.948C101.604 194.612 101.123 194.154 100.768 193.575C100.423 192.987 100.25 192.323 100.25 191.585V185.532H102.085V191.459C102.085 191.898 102.183 192.291 102.38 192.636C102.585 192.973 102.856 193.244 103.192 193.449C103.529 193.655 103.893 193.757 104.285 193.757C104.715 193.757 105.103 193.655 105.448 193.449C105.794 193.244 106.065 192.973 106.261 192.636C106.467 192.291 106.57 191.898 106.57 191.459V185.532H108.335V191.585C108.335 192.323 108.158 192.987 107.803 193.575C107.457 194.154 106.981 194.612 106.373 194.948C105.766 195.275 105.07 195.439 104.285 195.439ZM110.55 195.355V187.97H112.231L112.259 189.483L111.937 189.652C112.03 189.315 112.212 189.012 112.483 188.741C112.754 188.46 113.076 188.236 113.45 188.068C113.824 187.9 114.207 187.816 114.599 187.816C115.16 187.816 115.627 187.928 116.001 188.152C116.384 188.376 116.668 188.713 116.855 189.161C117.051 189.61 117.15 190.17 117.15 190.843V195.355H115.426V190.969C115.426 190.595 115.375 190.287 115.272 190.044C115.169 189.792 115.01 189.61 114.795 189.497C114.581 189.376 114.319 189.32 114.011 189.329C113.758 189.329 113.525 189.371 113.31 189.455C113.105 189.53 112.922 189.642 112.764 189.792C112.614 189.932 112.493 190.095 112.399 190.282C112.315 190.469 112.273 190.675 112.273 190.899V195.355H111.418C111.25 195.355 111.091 195.355 110.942 195.355C110.802 195.355 110.671 195.355 110.55 195.355ZM119.285 195.355V187.97H121.008V195.355H119.285ZM120.126 186.401C119.78 186.401 119.509 186.317 119.313 186.148C119.126 185.971 119.033 185.723 119.033 185.406C119.033 185.107 119.131 184.864 119.327 184.677C119.523 184.49 119.789 184.397 120.126 184.397C120.481 184.397 120.751 184.485 120.938 184.663C121.135 184.831 121.233 185.079 121.233 185.406C121.233 185.695 121.135 185.933 120.938 186.12C120.742 186.307 120.471 186.401 120.126 186.401ZM128.421 198.438V193.589L128.771 193.631C128.762 193.855 128.678 194.08 128.519 194.304C128.369 194.519 128.169 194.72 127.916 194.906C127.673 195.084 127.398 195.229 127.09 195.341C126.791 195.444 126.478 195.495 126.151 195.495C125.497 195.495 124.908 195.331 124.385 195.005C123.871 194.668 123.465 194.21 123.166 193.631C122.867 193.052 122.718 192.393 122.718 191.655C122.718 190.908 122.862 190.249 123.152 189.68C123.451 189.1 123.853 188.647 124.357 188.32C124.871 187.984 125.455 187.816 126.109 187.816C126.464 187.816 126.805 187.872 127.132 187.984C127.459 188.096 127.753 188.246 128.014 188.432C128.276 188.619 128.481 188.829 128.631 189.063C128.79 189.297 128.874 189.535 128.883 189.778L128.435 189.82L128.463 187.956H130.144V198.438H128.421ZM126.431 193.968C126.833 193.968 127.188 193.869 127.496 193.673C127.804 193.477 128.042 193.206 128.211 192.861C128.388 192.515 128.477 192.113 128.477 191.655C128.477 191.198 128.388 190.796 128.211 190.45C128.042 190.095 127.804 189.82 127.496 189.624C127.188 189.427 126.833 189.329 126.431 189.329C126.029 189.329 125.674 189.432 125.366 189.638C125.058 189.834 124.815 190.109 124.637 190.464C124.469 190.81 124.385 191.207 124.385 191.655C124.385 192.104 124.469 192.506 124.637 192.861C124.815 193.206 125.058 193.477 125.366 193.673C125.674 193.869 126.029 193.968 126.431 193.968ZM134.722 195.495C134.189 195.495 133.727 195.378 133.334 195.145C132.942 194.902 132.643 194.561 132.438 194.122C132.232 193.673 132.129 193.141 132.129 192.524V187.97H133.853V192.16C133.853 192.552 133.914 192.889 134.035 193.169C134.156 193.44 134.334 193.65 134.568 193.799C134.801 193.949 135.081 194.024 135.408 194.024C135.651 194.024 135.871 193.986 136.067 193.911C136.272 193.827 136.45 193.715 136.599 193.575C136.749 193.426 136.866 193.253 136.95 193.057C137.034 192.851 137.076 192.632 137.076 192.398V187.97H138.799V195.355H137.118L137.09 193.813L137.398 193.645C137.286 194 137.095 194.318 136.824 194.598C136.562 194.869 136.249 195.089 135.885 195.257C135.52 195.416 135.133 195.495 134.722 195.495ZM144.281 195.495C143.505 195.495 142.819 195.331 142.221 195.005C141.632 194.678 141.17 194.234 140.834 193.673C140.507 193.103 140.343 192.454 140.343 191.725C140.343 191.146 140.437 190.618 140.623 190.142C140.81 189.666 141.067 189.255 141.394 188.909C141.73 188.554 142.127 188.283 142.585 188.096C143.052 187.9 143.561 187.802 144.113 187.802C144.598 187.802 145.051 187.895 145.472 188.082C145.892 188.269 146.257 188.526 146.565 188.853C146.873 189.17 147.107 189.553 147.266 190.002C147.434 190.441 147.513 190.922 147.504 191.445L147.49 192.048H141.506L141.184 190.871H146.046L145.822 191.109V190.801C145.794 190.511 145.701 190.259 145.542 190.044C145.383 189.82 145.178 189.647 144.925 189.525C144.682 189.395 144.412 189.329 144.113 189.329C143.655 189.329 143.267 189.418 142.95 189.596C142.641 189.773 142.408 190.03 142.249 190.366C142.09 190.693 142.011 191.104 142.011 191.599C142.011 192.076 142.109 192.492 142.305 192.847C142.51 193.202 142.795 193.477 143.16 193.673C143.533 193.86 143.968 193.954 144.463 193.954C144.809 193.954 145.126 193.897 145.416 193.785C145.705 193.673 146.018 193.472 146.355 193.183L147.209 194.374C146.957 194.607 146.668 194.808 146.341 194.976C146.023 195.135 145.687 195.261 145.332 195.355C144.977 195.448 144.626 195.495 144.281 195.495ZM153.458 195.355V185.546H155.279V193.673H159.805V195.355H153.458ZM161.775 195.355V187.97H163.499V195.355H161.775ZM162.616 186.401C162.27 186.401 161.999 186.317 161.803 186.148C161.616 185.971 161.523 185.723 161.523 185.406C161.523 185.107 161.621 184.864 161.817 184.677C162.013 184.49 162.28 184.397 162.616 184.397C162.971 184.397 163.242 184.485 163.429 184.663C163.625 184.831 163.723 185.079 163.723 185.406C163.723 185.695 163.625 185.933 163.429 186.12C163.232 186.307 162.962 186.401 162.616 186.401ZM165.684 195.355V187.97H167.366L167.394 189.483L167.072 189.652C167.165 189.315 167.347 189.012 167.618 188.741C167.889 188.46 168.211 188.236 168.585 188.068C168.959 187.9 169.342 187.816 169.734 187.816C170.295 187.816 170.762 187.928 171.135 188.152C171.518 188.376 171.803 188.713 171.99 189.161C172.186 189.61 172.284 190.17 172.284 190.843V195.355H170.561V190.969C170.561 190.595 170.509 190.287 170.407 190.044C170.304 189.792 170.145 189.61 169.93 189.497C169.715 189.376 169.454 189.32 169.145 189.329C168.893 189.329 168.66 189.371 168.445 189.455C168.239 189.53 168.057 189.642 167.898 189.792C167.749 189.932 167.627 190.095 167.534 190.282C167.45 190.469 167.408 190.675 167.408 190.899V195.355H166.553C166.385 195.355 166.226 195.355 166.077 195.355C165.936 195.355 165.806 195.355 165.684 195.355ZM175.835 193.099L175.499 191.487L179.002 187.97H181.3L175.835 193.099ZM174.223 195.355V184.985H175.947V195.355H174.223ZM179.212 195.355L176.493 192.062L177.713 191.025L181.342 195.355H179.212Z" fill="white"/>
<rect x="63.3555" y="211.032" width="435.568" height="56.0516" rx="11.6774" fill="url(#paint4_linear_3022_12202)" fill-opacity="0.3"/>
<rect x="63.9393" y="211.616" width="434.4" height="54.8839" rx="11.0935" stroke="white" stroke-opacity="0.1" stroke-width="1.16774"/>
<path d="M80.423 234.713V233.168H89.6248V234.713H85.915V245.058H84.1269V234.713H80.423ZM94.7946 233.168H96.5827V241.598C96.5827 242.36 96.4318 243.013 96.1299 243.554C95.8319 244.096 95.4119 244.51 94.8701 244.797C94.3282 245.079 93.6935 245.221 92.9659 245.221C92.2963 245.221 91.6945 245.099 91.1603 244.855C90.6301 244.611 90.2102 244.257 89.9005 243.792C89.5948 243.324 89.4419 242.755 89.4419 242.086H91.2242C91.2242 242.415 91.2997 242.699 91.4506 242.939C91.6054 243.179 91.8164 243.367 92.0834 243.502C92.3544 243.634 92.664 243.7 93.0123 243.7C93.3916 243.7 93.7128 243.62 93.976 243.462C94.2431 243.299 94.4463 243.061 94.5856 242.747C94.7249 242.434 94.7946 242.051 94.7946 241.598V233.168ZM109.069 237.035H107.258C107.188 236.648 107.058 236.307 106.869 236.013C106.679 235.719 106.447 235.469 106.172 235.264C105.897 235.059 105.59 234.904 105.249 234.8C104.912 234.695 104.554 234.643 104.175 234.643C103.49 234.643 102.876 234.815 102.335 235.16C101.797 235.504 101.371 236.009 101.057 236.675C100.748 237.341 100.593 238.153 100.593 239.113C100.593 240.081 100.748 240.897 101.057 241.563C101.371 242.229 101.799 242.732 102.34 243.073C102.882 243.413 103.492 243.583 104.169 243.583C104.545 243.583 104.901 243.533 105.237 243.433C105.578 243.328 105.886 243.175 106.16 242.974C106.435 242.773 106.667 242.527 106.857 242.237C107.051 241.942 107.184 241.606 107.258 241.226L109.069 241.232C108.972 241.817 108.785 242.355 108.506 242.846C108.231 243.334 107.877 243.756 107.443 244.112C107.014 244.464 106.522 244.737 105.969 244.93C105.415 245.124 104.812 245.221 104.157 245.221C103.128 245.221 102.211 244.977 101.406 244.489C100.601 243.998 99.9659 243.295 99.5015 242.382C99.0409 241.468 98.8106 240.379 98.8106 239.113C98.8106 237.844 99.0428 236.754 99.5073 235.845C99.9717 234.931 100.606 234.231 101.411 233.743C102.217 233.252 103.132 233.006 104.157 233.006C104.788 233.006 105.377 233.097 105.922 233.279C106.472 233.457 106.965 233.72 107.403 234.068C107.84 234.413 108.202 234.835 108.488 235.334C108.775 235.829 108.968 236.396 109.069 237.035ZM110.298 233.168H112.336L115.442 238.573H115.57L118.676 233.168H120.713L116.4 240.39V245.058H114.612V240.39L110.298 233.168ZM122.407 245.058V233.168H129.861V234.713H124.201V238.335H129.473V239.874H124.201V243.514H129.931V245.058H122.407ZM141.854 233.168V245.058H140.206L134.162 236.338H134.052V245.058H132.258V233.168H133.918L139.967 241.9H140.078V233.168H141.854ZM148.32 245.058H144.471V233.168H148.442C149.607 233.168 150.608 233.406 151.444 233.882C152.28 234.355 152.92 235.034 153.365 235.92C153.814 236.803 154.039 237.861 154.039 239.096C154.039 240.334 153.812 241.399 153.359 242.289C152.91 243.179 152.26 243.864 151.409 244.344C150.557 244.82 149.528 245.058 148.32 245.058ZM146.265 243.491H148.222C149.127 243.491 149.88 243.32 150.48 242.98C151.08 242.635 151.529 242.138 151.827 241.488C152.125 240.834 152.274 240.036 152.274 239.096C152.274 238.163 152.125 237.372 151.827 236.721C151.533 236.071 151.093 235.578 150.509 235.241C149.924 234.904 149.199 234.736 148.332 234.736H146.265V243.491ZM160.618 233.168V245.058H158.818V234.968H158.748L155.904 236.826V235.107L158.87 233.168H160.618ZM163.997 245.058V233.168H168.235C169.156 233.168 169.92 233.327 170.528 233.644C171.139 233.962 171.596 234.401 171.898 234.962C172.2 235.52 172.351 236.164 172.351 236.895C172.351 237.623 172.198 238.264 171.892 238.817C171.59 239.367 171.134 239.794 170.522 240.1C169.914 240.406 169.15 240.559 168.229 240.559H165.018V239.015H168.066C168.647 239.015 169.119 238.931 169.483 238.765C169.851 238.598 170.119 238.357 170.29 238.039C170.46 237.722 170.545 237.341 170.545 236.895C170.545 236.447 170.458 236.058 170.284 235.729C170.114 235.4 169.845 235.148 169.477 234.974C169.113 234.796 168.635 234.707 168.043 234.707H165.791V245.058H163.997ZM169.866 239.694L172.804 245.058H170.76L167.88 239.694H169.866Z" fill="#A8A8A8"/>
<path d="M463.893 234.387V232.052C463.893 229.472 465.984 227.381 468.564 227.381L475.571 227.381C478.15 227.381 480.242 229.472 480.242 232.052V239.058C480.242 241.638 478.15 243.729 475.571 243.729H473.235M463.893 234.387H461.558C458.978 234.387 456.887 236.478 456.887 239.058V246.065C456.887 248.644 458.978 250.735 461.558 250.735H468.564C471.144 250.735 473.235 248.644 473.235 246.065V243.729M463.893 234.387H468.564C471.144 234.387 473.235 236.478 473.235 239.058V243.729" stroke="#999F9F" stroke-width="1.75161" stroke-linejoin="round"/>
<g filter="url(#filter1_ddi_3022_12202)">
<rect x="63.3555" y="288.103" width="435.568" height="51.6968" rx="11.6774" fill="#01C88C" shape-rendering="crispEdges"/>
<rect x="63.9393" y="288.687" width="434.4" height="50.529" rx="11.0935" stroke="white" stroke-opacity="0.1" stroke-width="1.16774" shape-rendering="crispEdges"/>
<path d="M266.937 316.458C266.937 316.219 266.899 316.006 266.825 315.82C266.756 315.633 266.631 315.463 266.45 315.309C266.269 315.154 266.013 315.005 265.683 314.862C265.359 314.713 264.944 314.561 264.438 314.407C263.885 314.236 263.374 314.047 262.906 313.84C262.443 313.627 262.038 313.382 261.692 313.105C261.346 312.823 261.077 312.501 260.886 312.14C260.694 311.772 260.599 311.349 260.599 310.87C260.599 310.397 260.697 309.966 260.894 309.577C261.096 309.189 261.381 308.853 261.748 308.571C262.121 308.284 262.56 308.063 263.065 307.909C263.571 307.749 264.13 307.669 264.742 307.669C265.604 307.669 266.346 307.829 266.969 308.148C267.597 308.468 268.078 308.896 268.414 309.433C268.754 309.971 268.924 310.564 268.924 311.214H266.937C266.937 310.83 266.854 310.492 266.689 310.2C266.53 309.902 266.285 309.668 265.955 309.497C265.63 309.327 265.218 309.242 264.718 309.242C264.244 309.242 263.85 309.314 263.536 309.457C263.222 309.601 262.988 309.795 262.834 310.04C262.679 310.285 262.602 310.562 262.602 310.87C262.602 311.088 262.653 311.288 262.754 311.469C262.855 311.645 263.009 311.81 263.217 311.964C263.424 312.113 263.685 312.254 263.999 312.387C264.313 312.52 264.683 312.648 265.109 312.77C265.753 312.962 266.314 313.175 266.793 313.409C267.272 313.638 267.671 313.898 267.99 314.191C268.31 314.484 268.549 314.816 268.709 315.189C268.869 315.556 268.948 315.974 268.948 316.442C268.948 316.932 268.85 317.373 268.653 317.767C268.456 318.156 268.174 318.488 267.807 318.765C267.445 319.037 267.009 319.247 266.498 319.396C265.992 319.539 265.428 319.611 264.805 319.611C264.247 319.611 263.696 319.537 263.153 319.388C262.615 319.239 262.126 319.013 261.684 318.709C261.242 318.401 260.891 318.017 260.63 317.56C260.37 317.097 260.239 316.557 260.239 315.939H262.243C262.243 316.317 262.307 316.639 262.435 316.905C262.568 317.171 262.751 317.389 262.985 317.56C263.219 317.725 263.491 317.847 263.8 317.927C264.114 318.007 264.449 318.047 264.805 318.047C265.274 318.047 265.665 317.98 265.979 317.847C266.298 317.714 266.538 317.528 266.697 317.288C266.857 317.049 266.937 316.772 266.937 316.458ZM272.429 307.19V319.452H270.513V307.19H272.429ZM272.093 314.814L271.471 314.806C271.476 314.21 271.559 313.659 271.718 313.153C271.883 312.648 272.112 312.209 272.405 311.836C272.703 311.458 273.059 311.168 273.474 310.966C273.89 310.759 274.35 310.655 274.855 310.655C275.281 310.655 275.664 310.713 276.005 310.83C276.351 310.947 276.649 311.136 276.899 311.397C277.149 311.653 277.338 311.988 277.466 312.403C277.599 312.813 277.665 313.313 277.665 313.904V319.452H275.734V313.888C275.734 313.473 275.672 313.143 275.55 312.898C275.433 312.653 275.26 312.477 275.031 312.371C274.802 312.259 274.523 312.203 274.193 312.203C273.847 312.203 273.541 312.273 273.275 312.411C273.014 312.549 272.796 312.738 272.62 312.978C272.445 313.217 272.312 313.494 272.221 313.808C272.136 314.122 272.093 314.457 272.093 314.814ZM284.483 317.719V313.6C284.483 313.292 284.427 313.026 284.315 312.802C284.203 312.579 284.033 312.406 283.804 312.283C283.58 312.161 283.298 312.1 282.958 312.1C282.644 312.1 282.372 312.153 282.144 312.259C281.915 312.366 281.736 312.509 281.609 312.69C281.481 312.871 281.417 313.076 281.417 313.305H279.501C279.501 312.964 279.584 312.634 279.749 312.315C279.914 311.996 280.153 311.711 280.467 311.461C280.781 311.211 281.156 311.014 281.593 310.87C282.029 310.727 282.519 310.655 283.062 310.655C283.711 310.655 284.286 310.764 284.786 310.982C285.291 311.2 285.688 311.53 285.975 311.972C286.268 312.408 286.414 312.956 286.414 313.616V317.456C286.414 317.85 286.441 318.204 286.494 318.518C286.553 318.826 286.635 319.095 286.742 319.324V319.452H284.77C284.679 319.244 284.608 318.981 284.554 318.661C284.506 318.337 284.483 318.023 284.483 317.719ZM284.762 314.199L284.778 315.388H283.397C283.04 315.388 282.726 315.423 282.455 315.492C282.184 315.556 281.957 315.652 281.776 315.78C281.595 315.907 281.46 316.062 281.369 316.243C281.279 316.424 281.234 316.628 281.234 316.857C281.234 317.086 281.287 317.296 281.393 317.488C281.5 317.674 281.654 317.82 281.856 317.927C282.064 318.033 282.314 318.087 282.607 318.087C283 318.087 283.344 318.007 283.636 317.847C283.934 317.682 284.169 317.483 284.339 317.248C284.509 317.009 284.6 316.783 284.61 316.57L285.233 317.424C285.169 317.642 285.06 317.876 284.906 318.126C284.751 318.377 284.549 318.616 284.299 318.845C284.054 319.068 283.759 319.252 283.413 319.396C283.072 319.539 282.678 319.611 282.231 319.611C281.667 319.611 281.164 319.499 280.723 319.276C280.281 319.047 279.935 318.741 279.685 318.358C279.435 317.969 279.31 317.53 279.31 317.041C279.31 316.583 279.395 316.179 279.565 315.827C279.741 315.471 279.996 315.173 280.332 314.933C280.672 314.694 281.087 314.513 281.577 314.391C282.066 314.263 282.625 314.199 283.253 314.199H284.762ZM290.358 312.459V319.452H288.434V310.814H290.27L290.358 312.459ZM293 310.759L292.984 312.547C292.867 312.525 292.739 312.509 292.601 312.499C292.468 312.488 292.335 312.483 292.202 312.483C291.872 312.483 291.582 312.531 291.332 312.626C291.081 312.717 290.871 312.85 290.701 313.026C290.536 313.196 290.408 313.403 290.318 313.648C290.227 313.893 290.174 314.167 290.158 314.47L289.719 314.502C289.719 313.96 289.772 313.457 289.879 312.994C289.985 312.531 290.145 312.124 290.358 311.772C290.576 311.421 290.847 311.147 291.172 310.95C291.502 310.753 291.882 310.655 292.313 310.655C292.431 310.655 292.556 310.665 292.689 310.687C292.827 310.708 292.931 310.732 293 310.759ZM297.853 319.611C297.215 319.611 296.637 319.507 296.121 319.3C295.61 319.087 295.174 318.792 294.812 318.414C294.455 318.036 294.181 317.592 293.99 317.081C293.798 316.57 293.702 316.019 293.702 315.428V315.109C293.702 314.433 293.801 313.821 293.998 313.273C294.195 312.725 294.469 312.257 294.82 311.868C295.171 311.474 295.586 311.174 296.065 310.966C296.544 310.759 297.063 310.655 297.622 310.655C298.239 310.655 298.779 310.759 299.242 310.966C299.705 311.174 300.089 311.466 300.392 311.844C300.701 312.217 300.929 312.661 301.078 313.177C301.233 313.693 301.31 314.263 301.31 314.886V315.708H294.636V314.327H299.41V314.175C299.399 313.829 299.33 313.505 299.202 313.201C299.08 312.898 298.891 312.653 298.636 312.467C298.38 312.281 298.04 312.187 297.614 312.187C297.295 312.187 297.01 312.257 296.76 312.395C296.515 312.528 296.31 312.722 296.145 312.978C295.98 313.233 295.852 313.542 295.762 313.904C295.677 314.26 295.634 314.662 295.634 315.109V315.428C295.634 315.806 295.685 316.157 295.786 316.482C295.892 316.801 296.047 317.081 296.249 317.32C296.451 317.56 296.696 317.749 296.983 317.887C297.271 318.02 297.598 318.087 297.965 318.087C298.428 318.087 298.841 317.993 299.202 317.807C299.564 317.621 299.878 317.357 300.144 317.017L301.158 317.999C300.972 318.27 300.73 318.531 300.432 318.781C300.134 319.026 299.769 319.225 299.338 319.38C298.912 319.534 298.417 319.611 297.853 319.611Z" fill="#011511"/>
</g>
</g>
<defs>
<filter id="filter0_b_3022_12202" x="16.6452" y="134.645" width="528.987" height="251.865" filterUnits="userSpaceOnUse" color-interpolation-filters="sRGB">
<feFlood flood-opacity="0" result="BackgroundImageFix"/>
<feGaussianBlur in="BackgroundImageFix" stdDeviation="11.6774"/>
<feComposite in2="SourceAlpha" operator="in" result="effect1_backgroundBlur_3022_12202"/>
<feBlend mode="normal" in="SourceGraphic" in2="effect1_backgroundBlur_3022_12202" result="shape"/>
</filter>
<filter id="filter1_ddi_3022_12202" x="58.6845" y="287.103" width="444.908" height="62.0387" filterUnits="userSpaceOnUse" color-interpolation-filters="sRGB">
<feFlood flood-opacity="0" result="BackgroundImageFix"/>
<feColorMatrix in="SourceAlpha" type="matrix" values="0 0 0 0 0 0 0 0 0 0 0 0 0 0 0 0 0 0 127 0" result="hardAlpha"/>
<feOffset dy="4.67097"/>
<feGaussianBlur stdDeviation="2.33548"/>
<feComposite in2="hardAlpha" operator="out"/>
<feColorMatrix type="matrix" values="0 0 0 0 0.00392157 0 0 0 0 0.0588235 0 0 0 0 0.0588235 0 0 0 0.25 0"/>
<feBlend mode="normal" in2="BackgroundImageFix" result="effect1_dropShadow_3022_12202"/>
<feColorMatrix in="SourceAlpha" type="matrix" values="0 0 0 0 0 0 0 0 0 0 0 0 0 0 0 0 0 0 127 0" result="hardAlpha"/>
<feMorphology radius="1" operator="dilate" in="SourceAlpha" result="effect2_dropShadow_3022_12202"/>
<feOffset dy="1.16774"/>
<feGaussianBlur stdDeviation="0.583871"/>
<feComposite in2="hardAlpha" operator="out"/>
<feColorMatrix type="matrix" values="0 0 0 0 0.00392157 0 0 0 0 0.0588235 0 0 0 0 0.0588235 0 0 0 0.2 0"/>
<feBlend mode="normal" in2="effect1_dropShadow_3022_12202" result="effect2_dropShadow_3022_12202"/>
<feBlend mode="normal" in="SourceGraphic" in2="effect2_dropShadow_3022_12202" result="shape"/>
<feColorMatrix in="SourceAlpha" type="matrix" values="0 0 0 0 0 0 0 0 0 0 0 0 0 0 0 0 0 0 127 0" result="hardAlpha"/>
<feMorphology radius="1" operator="erode" in="SourceAlpha" result="effect3_innerShadow_3022_12202"/>
<feOffset dy="9.34194"/>
<feGaussianBlur stdDeviation="9.34194"/>
<feComposite in2="hardAlpha" operator="arithmetic" k2="-1" k3="1"/>
<feColorMatrix type="matrix" values="0 0 0 0 0.00878074 0 0 0 0 0.0957898 0 0 0 0 0.0957898 0 0 0 0.1 0"/>
<feBlend mode="normal" in2="shape" result="effect3_innerShadow_3022_12202"/>
</filter>
<radialGradient id="paint0_radial_3022_12202" cx="0" cy="0" r="1" gradientUnits="userSpaceOnUse" gradientTransform="translate(2.54619e-05 132) rotate(58.0477) scale(457.283 534.68)">
<stop stop-color="#5DDB71"/>
<stop offset="1" stop-color="#5DDB71" stop-opacity="0"/>
</radialGradient>
<linearGradient id="paint1_linear_3022_12202" x1="281.139" y1="158" x2="281.139" y2="363.155" gradientUnits="userSpaceOnUse">
<stop stop-color="#0A0A0A" stop-opacity="0.9"/>
<stop offset="1" stop-color="#040404"/>
</linearGradient>
<radialGradient id="paint2_radial_3022_12202" cx="0" cy="0" r="1" gradientUnits="userSpaceOnUse" gradientTransform="translate(106.312 333.63) rotate(-21.1667) scale(425.998 315.358)">
<stop stop-color="#00C88C"/>
<stop offset="0.5" stop-color="#00C88C" stop-opacity="0"/>
<stop offset="1" stop-color="#00C88C" stop-opacity="0"/>
</radialGradient>
<linearGradient id="paint3_linear_3022_12202" x1="406.641" y1="435.406" x2="350.708" y2="118.889" gradientUnits="userSpaceOnUse">
<stop stop-color="#00C88C" stop-opacity="0.4"/>
<stop offset="1" stop-color="#0C7C33" stop-opacity="0.2"/>
</linearGradient>
<linearGradient id="paint4_linear_3022_12202" x1="296.664" y1="211.032" x2="296.664" y2="267.084" gradientUnits="userSpaceOnUse">
<stop stop-color="#0A0A0A"/>
<stop offset="1" stop-color="#040404"/>
</linearGradient>
</defs>
</svg>
