<svg width="1107" height="2401" viewBox="0 0 1107 2401" fill="none" xmlns="http://www.w3.org/2000/svg">
<g opacity="0.2" filter="url(#filter0_f_3022_11877)">
<path d="M-84.2633 551.19C18.7928 491.691 138.23 466.854 256.463 480.337C374.696 493.819 485.475 544.909 572.489 626.083C659.503 707.257 718.154 814.226 739.805 931.239C761.457 1048.25 744.964 1169.12 692.757 1276.06L608.099 1234.73C651.454 1145.93 665.15 1045.55 647.17 948.379C629.19 851.209 580.485 762.379 508.226 694.97C435.967 627.56 343.973 585.134 245.789 573.938C147.605 562.741 48.4212 583.367 -37.1594 632.777L-84.2633 551.19Z" fill="url(#paint0_radial_3022_11877)"/>
</g>
<g filter="url(#filter1_i_3022_11877)">
<path d="M-593.494 513.791C-500.235 459.948 -397.284 425 -290.519 410.945C-183.755 396.889 -75.2666 403.999 28.7502 431.871C132.767 459.742 230.276 507.828 315.709 573.383C401.142 638.938 472.827 720.679 526.67 813.938C580.513 907.197 615.46 1010.15 629.516 1116.91C643.572 1223.68 636.461 1332.17 608.59 1436.18C580.718 1540.2 532.632 1637.71 467.077 1723.14C401.522 1808.57 319.782 1880.26 226.523 1934.1L-183.486 1223.95L-593.494 513.791Z" fill="url(#paint1_radial_3022_11877)"/>
</g>
<rect width="1734.34" height="893.818" transform="matrix(-0.5 -0.866025 -0.866025 0.5 1033.39 1544.01)" fill="url(#paint2_linear_3022_11877)"/>
<defs>
<filter id="filter0_f_3022_11877" x="-284.262" y="276.758" width="1233.34" height="1199.3" filterUnits="userSpaceOnUse" color-interpolation-filters="sRGB">
<feFlood flood-opacity="0" result="BackgroundImageFix"/>
<feBlend mode="normal" in="SourceGraphic" in2="BackgroundImageFix" result="shape"/>
<feGaussianBlur stdDeviation="100" result="effect1_foregroundBlur_3022_11877"/>
</filter>
<filter id="filter1_i_3022_11877" x="-593.496" y="403.929" width="1236.03" height="1536.17" filterUnits="userSpaceOnUse" color-interpolation-filters="sRGB">
<feFlood flood-opacity="0" result="BackgroundImageFix"/>
<feBlend mode="normal" in="SourceGraphic" in2="BackgroundImageFix" result="shape"/>
<feColorMatrix in="SourceAlpha" type="matrix" values="0 0 0 0 0 0 0 0 0 0 0 0 0 0 0 0 0 0 127 0" result="hardAlpha"/>
<feOffset dx="6" dy="6"/>
<feGaussianBlur stdDeviation="10"/>
<feComposite in2="hardAlpha" operator="arithmetic" k2="-1" k3="1"/>
<feColorMatrix type="matrix" values="0 0 0 0 1 0 0 0 0 1 0 0 0 0 1 0 0 0 1 0"/>
<feBlend mode="normal" in2="shape" result="effect1_innerShadow_3022_11877"/>
</filter>
<radialGradient id="paint0_radial_3022_11877" cx="0" cy="0" r="1" gradientUnits="userSpaceOnUse" gradientTransform="translate(-287.613 1310.1) rotate(-30) scale(1111.12 1111.12)">
<stop offset="1" stop-color="white" stop-opacity="0.6"/>
</radialGradient>
<radialGradient id="paint1_radial_3022_11877" cx="0" cy="0" r="1" gradientUnits="userSpaceOnUse" gradientTransform="translate(-893.641 1633.95) rotate(-30) scale(1640.03 1640.03)">
<stop offset="0.678207" stop-color="#00C88C" stop-opacity="0.01"/>
<stop offset="0.848455" stop-color="#00C88C" stop-opacity="0.4"/>
<stop offset="0.908957" stop-color="#00C88C" stop-opacity="0.65"/>
<stop offset="1" stop-color="white"/>
</radialGradient>
<linearGradient id="paint2_linear_3022_11877" x1="867.168" y1="0" x2="867.168" y2="893.818" gradientUnits="userSpaceOnUse">
<stop stop-color="#050505" stop-opacity="0"/>
<stop offset="1" stop-color="#050505"/>
</linearGradient>
</defs>
</svg>
