<svg width="560" height="520" viewBox="0 0 560 520" fill="none" xmlns="http://www.w3.org/2000/svg">
<g clip-path="url(#clip0_3022_12555)">
<rect width="560" height="520" rx="16" fill="#071B15"/>
<rect width="560" height="520" rx="16" fill="url(#paint0_radial_3022_12555)" fill-opacity="0.2"/>
<g filter="url(#filter0_bdi_3022_12555)">
<path d="M112.492 205.26L112.492 260V314.74C112.492 324.524 112.492 329.416 113.597 334.019C114.577 338.101 116.193 342.003 118.387 345.581C120.86 349.618 124.319 353.077 131.237 359.995L174.997 403.755C181.915 410.673 185.374 414.132 189.411 416.606C192.99 418.799 196.891 420.415 200.973 421.395C205.576 422.5 210.468 422.5 220.252 422.5H274.992H329.733C339.516 422.5 344.408 422.5 349.011 421.395C353.093 420.415 356.995 418.799 360.574 416.606C364.61 414.132 368.069 410.673 374.987 403.755L418.747 359.995C425.665 353.077 429.124 349.618 431.598 345.581C433.791 342.003 435.407 338.101 436.387 334.019C437.492 329.416 437.492 324.524 437.492 314.74V260V205.26C437.492 195.476 437.492 190.584 436.387 185.981C435.407 181.899 433.791 177.997 431.598 174.419C429.124 170.382 425.665 166.923 418.747 160.005L374.987 116.245C368.069 109.327 364.61 105.868 360.574 103.394C356.995 101.201 353.093 99.5851 349.011 98.6052C344.408 97.5 339.516 97.5 329.733 97.5H274.992L220.252 97.5C210.468 97.5 205.576 97.5 200.973 98.6052C196.891 99.5851 192.99 101.201 189.411 103.394C185.374 105.868 181.915 109.327 174.997 116.245L174.997 116.245L131.237 160.005C124.319 166.923 120.86 170.382 118.387 174.419C116.193 177.997 114.577 181.899 113.597 185.981C112.492 190.584 112.492 195.476 112.492 205.26Z" fill="#282828" fill-opacity="0.7" style="mix-blend-mode:luminosity" shape-rendering="crispEdges"/>
<path d="M114.367 260L114.367 205.26C114.367 195.387 114.379 190.756 115.421 186.418C116.355 182.528 117.895 178.809 119.985 175.398C122.316 171.595 125.582 168.312 132.563 161.331L176.323 117.571L176.323 117.571C183.304 110.59 186.587 107.324 190.39 104.993C193.802 102.903 197.52 101.362 201.411 100.428C205.748 99.3871 210.379 99.375 220.252 99.375L274.992 99.375H329.733C339.605 99.375 344.236 99.3871 348.574 100.428C352.464 101.362 356.183 102.903 359.594 104.993C363.397 107.324 366.68 110.59 373.662 117.571L417.421 161.331C424.402 168.312 427.668 171.595 429.999 175.398C432.089 178.809 433.63 182.528 434.564 186.418C435.605 190.756 435.617 195.387 435.617 205.26V260V314.74C435.617 324.613 435.605 329.244 434.564 333.582C433.63 337.472 432.089 341.191 429.999 344.602C427.668 348.405 424.402 351.688 417.421 358.669L373.662 402.429C366.68 409.41 363.397 412.676 359.594 415.007C356.183 417.097 352.464 418.638 348.574 419.572C344.236 420.613 339.605 420.625 329.733 420.625H274.992H220.252C210.379 420.625 205.748 420.613 201.411 419.572C197.52 418.638 193.802 417.097 190.39 415.007C186.587 412.676 183.304 409.41 176.323 402.429L132.563 358.669C125.582 351.688 122.316 348.405 119.985 344.602C117.895 341.191 116.355 337.472 115.421 333.582C114.379 329.244 114.367 324.613 114.367 314.74V260Z" stroke="url(#paint1_linear_3022_12555)" stroke-opacity="0.25" stroke-width="3.75" shape-rendering="crispEdges"/>
</g>
<mask id="mask0_3022_12555" style="mask-type:alpha" maskUnits="userSpaceOnUse" x="112" y="97" width="326" height="326">
<path d="M112.492 205.26L112.492 260V314.74C112.492 324.524 112.492 329.416 113.597 334.019C114.577 338.101 116.193 342.003 118.387 345.581C120.86 349.618 124.319 353.077 131.237 359.995L174.997 403.755C181.915 410.673 185.374 414.132 189.411 416.606C192.99 418.799 196.891 420.415 200.973 421.395C205.576 422.5 210.468 422.5 220.252 422.5H274.992H329.733C339.516 422.5 344.408 422.5 349.011 421.395C353.093 420.415 356.995 418.799 360.574 416.606C364.61 414.132 368.069 410.673 374.987 403.755L418.747 359.995C425.665 353.077 429.124 349.618 431.598 345.581C433.791 342.003 435.407 338.101 436.387 334.019C437.492 329.416 437.492 324.524 437.492 314.74V260V205.26C437.492 195.476 437.492 190.584 436.387 185.981C435.407 181.899 433.791 177.997 431.598 174.419C429.124 170.382 425.665 166.923 418.747 160.005L374.987 116.245C368.069 109.327 364.61 105.868 360.574 103.394C356.995 101.201 353.093 99.5851 349.011 98.6052C344.408 97.5 339.516 97.5 329.733 97.5H274.992L220.252 97.5C210.468 97.5 205.576 97.5 200.973 98.6052C196.891 99.5851 192.99 101.201 189.411 103.394C185.374 105.868 181.915 109.327 174.997 116.245L174.997 116.245L131.237 160.005C124.319 166.923 120.86 170.382 118.387 174.419C116.193 177.997 114.577 181.899 113.597 185.981C112.492 190.584 112.492 195.476 112.492 205.26Z" fill="#D9D9D9"/>
</mask>
<g mask="url(#mask0_3022_12555)">
<g filter="url(#filter1_f_3022_12555)">
<rect x="234.992" y="17.5" width="212.5" height="212.5" rx="106.25" fill="#F8F8F8" fill-opacity="0.2"/>
</g>
</g>
<g filter="url(#filter2_bdd_3022_12555)">
<path fill-rule="evenodd" clip-rule="evenodd" d="M274.997 251.667C288.805 251.667 299.997 240.474 299.997 226.667C299.997 212.86 288.805 201.667 274.997 201.667C261.19 201.667 249.997 212.86 249.997 226.667C249.997 240.474 261.19 251.667 274.997 251.667ZM274.997 318.333C302.612 318.333 324.997 307.14 324.997 293.333C324.997 279.526 302.612 268.333 274.997 268.333C247.383 268.333 224.997 279.526 224.997 293.333C224.997 307.14 247.383 318.333 274.997 318.333ZM228.178 268.492C207.597 269.761 191.664 278.534 191.664 289.168C191.664 297.934 202.493 305.436 217.828 308.511C214.401 303.871 212.497 298.736 212.497 293.334C212.497 283.806 218.42 275.107 228.178 268.492ZM337.488 293.334C337.488 298.736 335.584 303.871 332.158 308.511C347.492 305.436 358.321 297.934 358.321 289.168C358.321 278.534 342.388 269.761 321.807 268.492C331.565 275.107 337.488 283.806 337.488 293.334ZM305.987 247.795C310.097 241.778 312.501 234.503 312.501 226.667C312.501 224.066 312.237 221.528 311.733 219.076C313.292 218.593 314.95 218.333 316.668 218.333C325.873 218.333 333.335 225.795 333.335 235C333.335 244.205 325.873 251.667 316.668 251.667C312.604 251.667 308.879 250.212 305.987 247.795ZM233.331 218.333C235.049 218.333 236.706 218.593 238.266 219.076C237.762 221.528 237.497 224.066 237.497 226.667C237.497 234.503 239.901 241.778 244.012 247.795C241.119 250.212 237.395 251.667 233.331 251.667C224.126 251.667 216.664 244.205 216.664 235C216.664 225.795 224.126 218.333 233.331 218.333Z" fill="url(#paint2_linear_3022_12555)"/>
</g>
</g>
<rect x="0.5" y="0.5" width="559" height="519" rx="15.5" stroke="white" stroke-opacity="0.1"/>
<defs>
<filter id="filter0_bdi_3022_12555" x="82.4922" y="67.5" width="385" height="455" filterUnits="userSpaceOnUse" color-interpolation-filters="sRGB">
<feFlood flood-opacity="0" result="BackgroundImageFix"/>
<feGaussianBlur in="BackgroundImageFix" stdDeviation="15"/>
<feComposite in2="SourceAlpha" operator="in" result="effect1_backgroundBlur_3022_12555"/>
<feColorMatrix in="SourceAlpha" type="matrix" values="0 0 0 0 0 0 0 0 0 0 0 0 0 0 0 0 0 0 127 0" result="hardAlpha"/>
<feMorphology radius="40" operator="erode" in="SourceAlpha" result="effect2_dropShadow_3022_12555"/>
<feOffset dy="80"/>
<feGaussianBlur stdDeviation="30"/>
<feComposite in2="hardAlpha" operator="out"/>
<feColorMatrix type="matrix" values="0 0 0 0 0 0 0 0 0 0 0 0 0 0 0 0 0 0 0.4 0"/>
<feBlend mode="multiply" in2="effect1_backgroundBlur_3022_12555" result="effect2_dropShadow_3022_12555"/>
<feBlend mode="normal" in="SourceGraphic" in2="effect2_dropShadow_3022_12555" result="shape"/>
<feColorMatrix in="SourceAlpha" type="matrix" values="0 0 0 0 0 0 0 0 0 0 0 0 0 0 0 0 0 0 127 0" result="hardAlpha"/>
<feOffset/>
<feGaussianBlur stdDeviation="10"/>
<feComposite in2="hardAlpha" operator="arithmetic" k2="-1" k3="1"/>
<feColorMatrix type="matrix" values="0 0 0 0 0.972549 0 0 0 0 0.972549 0 0 0 0 0.972549 0 0 0 0.25 0"/>
<feBlend mode="normal" in2="shape" result="effect3_innerShadow_3022_12555"/>
</filter>
<filter id="filter1_f_3022_12555" x="74.9922" y="-142.5" width="532.5" height="532.5" filterUnits="userSpaceOnUse" color-interpolation-filters="sRGB">
<feFlood flood-opacity="0" result="BackgroundImageFix"/>
<feBlend mode="normal" in="SourceGraphic" in2="BackgroundImageFix" result="shape"/>
<feGaussianBlur stdDeviation="80" result="effect1_foregroundBlur_3022_12555"/>
</filter>
<filter id="filter2_bdd_3022_12555" x="149" y="134" width="252" height="252" filterUnits="userSpaceOnUse" color-interpolation-filters="sRGB">
<feFlood flood-opacity="0" result="BackgroundImageFix"/>
<feGaussianBlur in="BackgroundImageFix" stdDeviation="13"/>
<feComposite in2="SourceAlpha" operator="in" result="effect1_backgroundBlur_3022_12555"/>
<feColorMatrix in="SourceAlpha" type="matrix" values="0 0 0 0 0 0 0 0 0 0 0 0 0 0 0 0 0 0 127 0" result="hardAlpha"/>
<feOffset dx="-1.77273" dy="2.95455"/>
<feGaussianBlur stdDeviation="1.77273"/>
<feColorMatrix type="matrix" values="0 0 0 0 0 0 0 0 0 0 0 0 0 0 0 0 0 0 0.2 0"/>
<feBlend mode="normal" in2="effect1_backgroundBlur_3022_12555" result="effect2_dropShadow_3022_12555"/>
<feColorMatrix in="SourceAlpha" type="matrix" values="0 0 0 0 0 0 0 0 0 0 0 0 0 0 0 0 0 0 127 0" result="hardAlpha"/>
<feOffset dx="-0.590909" dy="1.18182"/>
<feGaussianBlur stdDeviation="0.886364"/>
<feComposite in2="hardAlpha" operator="out"/>
<feColorMatrix type="matrix" values="0 0 0 0 0 0 0 0 0 0 0 0 0 0 0 0 0 0 0.1 0"/>
<feBlend mode="normal" in2="effect2_dropShadow_3022_12555" result="effect3_dropShadow_3022_12555"/>
<feBlend mode="normal" in="SourceGraphic" in2="effect3_dropShadow_3022_12555" result="shape"/>
</filter>
<radialGradient id="paint0_radial_3022_12555" cx="0" cy="0" r="1" gradientUnits="userSpaceOnUse" gradientTransform="translate(2.54619e-05 132) rotate(58.0477) scale(457.283 534.68)">
<stop stop-color="#5D6ADB"/>
<stop offset="1" stop-color="#5D6ADB" stop-opacity="0"/>
</radialGradient>
<linearGradient id="paint1_linear_3022_12555" x1="274.992" y1="97.5" x2="416.374" y2="454.39" gradientUnits="userSpaceOnUse">
<stop stop-color="white" stop-opacity="0.4"/>
<stop offset="0.4" stop-color="white" stop-opacity="0.01"/>
<stop offset="0.6" stop-color="white" stop-opacity="0.01"/>
<stop offset="1" stop-color="white" stop-opacity="0.1"/>
</linearGradient>
<linearGradient id="paint2_linear_3022_12555" x1="358.321" y1="260" x2="191.664" y2="260" gradientUnits="userSpaceOnUse">
<stop stop-color="#D9D9D9"/>
<stop offset="0.5" stop-color="#D9D9D9"/>
<stop offset="1" stop-color="#D9D9D9" stop-opacity="0"/>
</linearGradient>
<clipPath id="clip0_3022_12555">
<rect width="560" height="520" rx="16" fill="white"/>
</clipPath>
</defs>
</svg>
