<svg xmlns="http://www.w3.org/2000/svg" width="1920" height="361" viewBox="0 0 1920 361" fill="none" style="&#10;">
<g clip-path="url(#clip0_3022_12047)">
<line y1="-0.597376" x2="479.096" y2="-0.597376" transform="matrix(0.607821 0.794074 -0.99999 -0.00459127 -4.99609 0.187988)" stroke="url(#paint0_linear_3022_12047)" stroke-opacity="0.2" stroke-width="1.19475"/>
<line y1="-0.597376" x2="479.096" y2="-0.597376" transform="matrix(0.607821 0.794074 -0.99999 -0.00459127 114.477 0.736572)" stroke="url(#paint1_linear_3022_12047)" stroke-opacity="0.2" stroke-width="1.19475"/>
<line y1="-0.597376" x2="479.096" y2="-0.597376" transform="matrix(0.607821 0.794074 -0.99999 -0.00459127 233.953 1.28516)" stroke="url(#paint2_linear_3022_12047)" stroke-opacity="0.2" stroke-width="1.19475"/>
<line y1="-0.597376" x2="479.096" y2="-0.597376" transform="matrix(0.607821 0.794074 -0.99999 -0.00459127 353.426 1.8335)" stroke="url(#paint3_linear_3022_12047)" stroke-opacity="0.2" stroke-width="1.19475"/>
<line y1="-0.597376" x2="479.096" y2="-0.597376" transform="matrix(0.607821 0.794074 -0.99999 -0.00459127 472.902 2.38232)" stroke="url(#paint4_linear_3022_12047)" stroke-opacity="0.2" stroke-width="1.19475"/>
<line y1="-0.597376" x2="479.096" y2="-0.597376" transform="matrix(0.607821 0.794074 -0.99999 -0.00459127 592.371 2.93066)" stroke="url(#paint5_linear_3022_12047)" stroke-opacity="0.2" stroke-width="1.19475"/>
<line y1="-0.597376" x2="479.096" y2="-0.597376" transform="matrix(0.607821 0.794074 -0.99999 -0.00459127 711.848 3.47925)" stroke="url(#paint6_linear_3022_12047)" stroke-opacity="0.2" stroke-width="1.19475"/>
<line y1="-0.597376" x2="479.096" y2="-0.597376" transform="matrix(0.607821 0.794074 -0.99999 -0.00459127 831.32 4.02783)" stroke="url(#paint7_linear_3022_12047)" stroke-opacity="0.2" stroke-width="1.19475"/>
<line y1="-0.597376" x2="479.096" y2="-0.597376" transform="matrix(0.607821 0.794074 -0.99999 -0.00459127 950.797 4.57642)" stroke="url(#paint8_linear_3022_12047)" stroke-opacity="0.2" stroke-width="1.19475"/>
<line y1="-0.597376" x2="479.096" y2="-0.597376" transform="matrix(0.607821 0.794074 -0.99999 -0.00459127 1070.27 5.12476)" stroke="url(#paint9_linear_3022_12047)" stroke-opacity="0.2" stroke-width="1.19475"/>
<line y1="-0.597376" x2="479.096" y2="-0.597376" transform="matrix(0.607821 0.794074 -0.99999 -0.00459127 1189.75 5.67334)" stroke="url(#paint10_linear_3022_12047)" stroke-opacity="0.2" stroke-width="1.19475"/>
<line y1="-0.597376" x2="479.096" y2="-0.597376" transform="matrix(0.607821 0.794074 -0.99999 -0.00459127 1309.22 6.22217)" stroke="url(#paint11_linear_3022_12047)" stroke-opacity="0.2" stroke-width="1.19475"/>
<line y1="-0.597376" x2="479.096" y2="-0.597376" transform="matrix(0.607821 0.794074 -0.99999 -0.00459127 1428.7 6.77051)" stroke="url(#paint12_linear_3022_12047)" stroke-opacity="0.2" stroke-width="1.19475"/>
<line y1="-0.597376" x2="479.096" y2="-0.597376" transform="matrix(0.607821 0.794074 -0.99999 -0.00459127 1548.17 7.31909)" stroke="url(#paint13_linear_3022_12047)" stroke-opacity="0.2" stroke-width="1.19475"/>
<line y1="-0.597376" x2="479.096" y2="-0.597376" transform="matrix(0.607821 0.794074 -0.99999 -0.00459127 1667.64 7.86768)" stroke="url(#paint14_linear_3022_12047)" stroke-opacity="0.2" stroke-width="1.19475"/>
<line y1="-0.597376" x2="479.096" y2="-0.597376" transform="matrix(0.607821 0.794074 -0.99999 -0.00459127 1787.12 8.41602)" stroke="url(#paint15_linear_3022_12047)" stroke-opacity="0.2" stroke-width="1.19475"/>
<line y1="-0.597376" x2="1792.13" y2="-0.597376" transform="matrix(0.99999 0.00459123 0.607821 0.794074 213.59 285.754)" stroke="url(#paint16_linear_3022_12047)" stroke-opacity="0.2" stroke-width="1.19475"/>
<line y1="-0.597376" x2="1792.13" y2="-0.597376" transform="matrix(0.99999 0.00459123 0.607821 0.794074 140.969 190.881)" stroke="url(#paint17_linear_3022_12047)" stroke-opacity="0.2" stroke-width="1.19475"/>
<line y1="-0.597376" x2="1792.13" y2="-0.597376" transform="matrix(0.99999 0.00459123 0.607821 0.794074 68.3516 96.0092)" stroke="url(#paint18_linear_3022_12047)" stroke-opacity="0.2" stroke-width="1.19475"/>

<rect width="479.096" height="634.414" transform="matrix(0.607821 0.794074 -0.99999 -0.00459121 616.27 3.04028)" fill="url(#paint19_linear_3022_12047)"/>
<rect width="1807.66" height="267.624" transform="matrix(-0.99999 -0.0045913 -0.607821 -0.794074 1952.18 220.941)" fill="url(#paint20_linear_3022_12047)"/>
<rect width="1807.66" height="211.472" transform="matrix(0.999989 0.0045911 0.607821 0.794074 144.531 212.641)" fill="url(#paint21_linear_3022_12047)"/>
<rect width="479.096" height="623.661" transform="matrix(-0.607821 -0.794074 0.99999 0.0045912 1457.06 386.001)" fill="url(#paint22_linear_3022_12047)"/>
<g filter="url(#filter0_f_3022_12047)">
<ellipse cx="538.833" cy="112.307" rx="538.833" ry="112.307" transform="matrix(0.99999 0.00459123 0.607821 0.794074 476.535 103.555)" fill="#0068E3" fill-opacity="0.05"/>
</g>
</g>
<defs>
<filter id="filter0_f_3022_12047" x="420.958" y="-13.481" width="1325.33" height="417.38" filterUnits="userSpaceOnUse" color-interpolation-filters="sRGB">
<feFlood flood-opacity="0" result="BackgroundImageFix"/>
<feBlend mode="normal" in="SourceGraphic" in2="BackgroundImageFix" result="shape"/>
<feGaussianBlur stdDeviation="59.7376" result="effect1_foregroundBlur_3022_12047"/>
</filter>
<linearGradient id="paint0_linear_3022_12047" x1="0" y1="0.5" x2="479.096" y2="0.5" gradientUnits="userSpaceOnUse">
<stop stop-color="#6D6D6D"/>
<stop offset="1" stop-color="#CBCBCB"/>
</linearGradient>
<linearGradient id="paint1_linear_3022_12047" x1="0" y1="0.5" x2="479.096" y2="0.5" gradientUnits="userSpaceOnUse">
<stop stop-color="#6D6D6D"/>
<stop offset="1" stop-color="#CBCBCB"/>
</linearGradient>
<linearGradient id="paint2_linear_3022_12047" x1="0" y1="0.5" x2="479.096" y2="0.5" gradientUnits="userSpaceOnUse">
<stop stop-color="#6D6D6D"/>
<stop offset="1" stop-color="#CBCBCB"/>
</linearGradient>
<linearGradient id="paint3_linear_3022_12047" x1="0" y1="0.5" x2="479.096" y2="0.5" gradientUnits="userSpaceOnUse">
<stop stop-color="#6D6D6D"/>
<stop offset="1" stop-color="#CBCBCB"/>
</linearGradient>
<linearGradient id="paint4_linear_3022_12047" x1="0" y1="0.5" x2="479.096" y2="0.5" gradientUnits="userSpaceOnUse">
<stop stop-color="#6D6D6D"/>
<stop offset="1" stop-color="#CBCBCB"/>
</linearGradient>
<linearGradient id="paint5_linear_3022_12047" x1="0" y1="0.5" x2="479.096" y2="0.5" gradientUnits="userSpaceOnUse">
<stop stop-color="#6D6D6D"/>
<stop offset="1" stop-color="#CBCBCB"/>
</linearGradient>
<linearGradient id="paint6_linear_3022_12047" x1="0" y1="0.5" x2="479.096" y2="0.5" gradientUnits="userSpaceOnUse">
<stop stop-color="#6D6D6D"/>
<stop offset="1" stop-color="#CBCBCB"/>
</linearGradient>
<linearGradient id="paint7_linear_3022_12047" x1="0" y1="0.5" x2="479.096" y2="0.5" gradientUnits="userSpaceOnUse">
<stop stop-color="#6D6D6D"/>
<stop offset="1" stop-color="#CBCBCB"/>
</linearGradient>
<linearGradient id="paint8_linear_3022_12047" x1="0" y1="0.5" x2="479.096" y2="0.5" gradientUnits="userSpaceOnUse">
<stop stop-color="#6D6D6D"/>
<stop offset="1" stop-color="#CBCBCB"/>
</linearGradient>
<linearGradient id="paint9_linear_3022_12047" x1="0" y1="0.5" x2="479.096" y2="0.5" gradientUnits="userSpaceOnUse">
<stop stop-color="#6D6D6D"/>
<stop offset="1" stop-color="#CBCBCB"/>
</linearGradient>
<linearGradient id="paint10_linear_3022_12047" x1="0" y1="0.5" x2="479.096" y2="0.5" gradientUnits="userSpaceOnUse">
<stop stop-color="#6D6D6D"/>
<stop offset="1" stop-color="#CBCBCB"/>
</linearGradient>
<linearGradient id="paint11_linear_3022_12047" x1="0" y1="0.5" x2="479.096" y2="0.5" gradientUnits="userSpaceOnUse">
<stop stop-color="#6D6D6D"/>
<stop offset="1" stop-color="#CBCBCB"/>
</linearGradient>
<linearGradient id="paint12_linear_3022_12047" x1="0" y1="0.5" x2="479.096" y2="0.5" gradientUnits="userSpaceOnUse">
<stop stop-color="#6D6D6D"/>
<stop offset="1" stop-color="#CBCBCB"/>
</linearGradient>
<linearGradient id="paint13_linear_3022_12047" x1="0" y1="0.5" x2="479.096" y2="0.5" gradientUnits="userSpaceOnUse">
<stop stop-color="#6D6D6D"/>
<stop offset="1" stop-color="#CBCBCB"/>
</linearGradient>
<linearGradient id="paint14_linear_3022_12047" x1="0" y1="0.5" x2="479.096" y2="0.5" gradientUnits="userSpaceOnUse">
<stop stop-color="#6D6D6D"/>
<stop offset="1" stop-color="#CBCBCB"/>
</linearGradient>
<linearGradient id="paint15_linear_3022_12047" x1="0" y1="0.5" x2="479.096" y2="0.5" gradientUnits="userSpaceOnUse">
<stop stop-color="#6D6D6D"/>
<stop offset="1" stop-color="#CBCBCB"/>
</linearGradient>
<linearGradient id="paint16_linear_3022_12047" x1="0" y1="0.5" x2="1792.13" y2="0.5" gradientUnits="userSpaceOnUse">
<stop stop-color="#6D6D6D"/>
<stop offset="1" stop-color="#CBCBCB"/>
</linearGradient>
<linearGradient id="paint17_linear_3022_12047" x1="0" y1="0.5" x2="1792.13" y2="0.5" gradientUnits="userSpaceOnUse">
<stop stop-color="#6D6D6D"/>
<stop offset="1" stop-color="#CBCBCB"/>
</linearGradient>
<linearGradient id="paint18_linear_3022_12047" x1="0" y1="0.5" x2="1792.13" y2="0.5" gradientUnits="userSpaceOnUse">
<stop stop-color="#6D6D6D"/>
<stop offset="1" stop-color="#CBCBCB"/>
</linearGradient>
<linearGradient id="paint19_linear_3022_12047" x1="239.548" y1="0" x2="239.548" y2="634.414" gradientUnits="userSpaceOnUse">
<stop stop-color="#050505" stop-opacity="0"/>
<stop offset="1" stop-color="#050505"/>
</linearGradient>
<linearGradient id="paint20_linear_3022_12047" x1="903.83" y1="0" x2="903.83" y2="267.624" gradientUnits="userSpaceOnUse">
<stop stop-color="#050505" stop-opacity="0"/>
<stop offset="1" stop-color="#050505"/>
</linearGradient>
<linearGradient id="paint21_linear_3022_12047" x1="903.83" y1="0" x2="903.83" y2="211.472" gradientUnits="userSpaceOnUse">
<stop stop-color="#050505" stop-opacity="0"/>
<stop offset="1" stop-color="#050505"/>
</linearGradient>
<linearGradient id="paint22_linear_3022_12047" x1="239.548" y1="0" x2="239.548" y2="623.661" gradientUnits="userSpaceOnUse">
<stop stop-color="#050505" stop-opacity="0"/>
<stop offset="1" stop-color="#050505"/>
</linearGradient>
<clipPath id="clip0_3022_12047">
<rect width="1659.79" height="443.717" fill="white" transform="matrix(0.99999 0.00459123 0.607821 0.794074 -4.99219 0.187988)"/>
</clipPath>
</defs>
</svg>