<svg width="166" height="140" viewBox="0 0 166 140" fill="none" xmlns="http://www.w3.org/2000/svg">
<rect x="13" width="140" height="140" rx="32" fill="#5DDB71" fill-opacity="0.05" style="mix-blend-mode:luminosity"/>
<rect x="19" y="6" width="128" height="128" rx="20" fill="url(#paint0_linear_3022_13507)" style="mix-blend-mode:luminosity"/>
<rect x="19.75" y="6.75" width="126.5" height="126.5" rx="19.25" stroke="url(#paint1_linear_3022_13507)" stroke-opacity="0.25" stroke-width="1.5"/>
<circle opacity="0.5" cx="22.2287" cy="32.1721" r="0.302844" transform="rotate(126.513 22.2287 32.1721)" fill="url(#paint2_linear_3022_13507)"/>
<circle opacity="0.5" cx="5.26781" cy="24.2981" r="0.302844" transform="rotate(126.513 5.26781 24.2981)" fill="url(#paint3_linear_3022_13507)"/>
<circle opacity="0.5" cx="52.5139" cy="40.6516" r="0.302844" transform="rotate(126.513 52.5139 40.6516)" fill="url(#paint4_linear_3022_13507)"/>
<circle opacity="0.5" cx="29.4944" cy="20.6638" r="0.302844" transform="rotate(126.513 29.4944 20.6638)" fill="url(#paint5_linear_3022_13507)"/>
<circle opacity="0.5" cx="0.424061" cy="33.383" r="0.302844" transform="rotate(126.513 0.424061 33.383)" fill="url(#paint6_linear_3022_13507)"/>
<circle opacity="0.5" cx="42.64" cy="40.2277" r="1.81706" transform="rotate(90 42.64 40.2277)" fill="url(#paint7_linear_3022_13507)"/>
<circle opacity="0.5" cx="11.4467" cy="31.4451" r="1.51422" transform="rotate(90 11.4467 31.4451)" fill="url(#paint8_linear_3022_13507)"/>
<circle cx="48.6951" cy="16.6057" r="0.605687" transform="rotate(90 48.6951 16.6057)" fill="url(#paint9_linear_3022_13507)"/>
<circle opacity="0.5" cx="41.7854" cy="30.7849" r="0.605687" transform="rotate(40.5342 41.7854 30.7849)" fill="url(#paint10_linear_3022_13507)"/>
<circle opacity="0.5" cx="16.9575" cy="25.3264" r="0.605687" transform="rotate(126.513 16.9575 25.3264)" fill="url(#paint11_linear_3022_13507)"/>
<circle opacity="0.5" cx="39.6131" cy="17.8171" r="0.605687" transform="rotate(90 39.6131 17.8171)" fill="url(#paint12_linear_3022_13507)"/>
<circle opacity="0.5" cx="32.3435" cy="37.8049" r="0.605687" transform="rotate(90 32.3435 37.8049)" fill="url(#paint13_linear_3022_13507)"/>
<circle cx="52.7056" cy="28.8311" r="1.65266" transform="rotate(145.989 52.7056 28.8311)" fill="white" fill-opacity="0.15"/>
<circle cx="26.2847" cy="26.2968" r="1.21137" transform="rotate(90 26.2847 26.2968)" fill="url(#paint14_linear_3022_13507)"/>
<circle opacity="0.5" cx="0.302844" cy="0.302844" r="0.302844" transform="matrix(0.594999 0.803727 0.803727 -0.594999 143.348 113.109)" fill="url(#paint15_linear_3022_13507)"/>
<circle opacity="0.5" cx="0.302844" cy="0.302844" r="0.302844" transform="matrix(0.594999 0.803727 0.803727 -0.594999 160.309 105.235)" fill="url(#paint16_linear_3022_13507)"/>
<circle opacity="0.5" cx="0.302844" cy="0.302844" r="0.302844" transform="matrix(0.594999 0.803727 0.803727 -0.594999 113.062 121.588)" fill="url(#paint17_linear_3022_13507)"/>
<circle opacity="0.5" cx="0.302844" cy="0.302844" r="0.302844" transform="matrix(0.594999 0.803727 0.803727 -0.594999 136.082 101.601)" fill="url(#paint18_linear_3022_13507)"/>
<circle opacity="0.5" cx="0.302844" cy="0.302844" r="0.302844" transform="matrix(0.594999 0.803727 0.803727 -0.594999 165.152 114.32)" fill="url(#paint19_linear_3022_13507)"/>
<circle opacity="0.5" cx="1.81706" cy="1.81706" r="1.81706" transform="matrix(4.37114e-08 1 1 -4.37114e-08 121.543 119.411)" fill="url(#paint20_linear_3022_13507)"/>
<circle opacity="0.5" cx="1.51422" cy="1.51422" r="1.51422" transform="matrix(4.37114e-08 1 1 -4.37114e-08 153.039 110.931)" fill="url(#paint21_linear_3022_13507)"/>
<circle cx="0.605687" cy="0.605687" r="0.605687" transform="matrix(4.37114e-08 1 1 -4.37114e-08 116.699 97)" fill="url(#paint22_linear_3022_13507)"/>
<circle opacity="0.5" cx="0.605687" cy="0.605687" r="0.605687" transform="matrix(-0.760019 0.649901 0.649901 0.760019 124.281 110.931)" fill="url(#paint23_linear_3022_13507)"/>
<circle opacity="0.5" cx="0.605687" cy="0.605687" r="0.605687" transform="matrix(0.594999 0.803727 0.803727 -0.594999 148.195 106.2)" fill="url(#paint24_linear_3022_13507)"/>
<circle opacity="0.5" cx="0.605687" cy="0.605687" r="0.605687" transform="matrix(4.37114e-08 1 1 -4.37114e-08 125.781 98.2114)" fill="url(#paint25_linear_3022_13507)"/>
<circle opacity="0.5" cx="0.605687" cy="0.605687" r="0.605687" transform="matrix(4.37114e-08 1 1 -4.37114e-08 133.051 118.199)" fill="url(#paint26_linear_3022_13507)"/>
<circle cx="1.65266" cy="1.65266" r="1.65266" transform="matrix(0.828928 0.559355 0.559355 -0.828928 111 110.277)" fill="white" fill-opacity="0.15"/>
<circle cx="1.21137" cy="1.21137" r="1.21137" transform="matrix(4.37114e-08 1 1 -4.37114e-08 138.504 106.085)" fill="url(#paint27_linear_3022_13507)"/>
<path fill-rule="evenodd" clip-rule="evenodd" d="M69.7564 55.8864L79.752 51.4439C81.8205 50.5246 84.1817 50.5246 86.2502 51.4439L96.2063 55.8688C99.1177 57.1628 101.029 60.071 100.825 63.2504C100.042 75.446 96.5556 80.9592 87.1304 87.3552C84.6431 89.0431 81.3619 89.039 78.8727 87.3538C69.4765 80.9924 65.8604 75.5561 65.1411 63.2077C64.9572 60.0491 66.8651 57.1714 69.7564 55.8864ZM90.13 64.9876C90.6755 64.3642 90.6123 63.4165 89.9889 62.871C89.3654 62.3255 88.4178 62.3886 87.8723 63.0121L81.8174 69.9319L77.9382 66.8285C77.2913 66.311 76.3473 66.4159 75.8298 67.0628C75.3123 67.7097 75.4172 68.6536 76.0641 69.1712L80.3169 72.5734C81.3616 73.4092 82.8791 73.2743 83.7601 72.2675L90.13 64.9876Z" fill="white"/>
<defs>
<linearGradient id="paint0_linear_3022_13507" x1="83" y1="6" x2="83" y2="134" gradientUnits="userSpaceOnUse">
<stop stop-color="#5DDB71"/>
<stop offset="1" stop-color="#21C72C"/>
</linearGradient>
<linearGradient id="paint1_linear_3022_13507" x1="83" y1="6" x2="138.683" y2="146.56" gradientUnits="userSpaceOnUse">
<stop stop-color="white" stop-opacity="0.4"/>
<stop offset="0.4" stop-color="white" stop-opacity="0.01"/>
<stop offset="0.6" stop-color="white" stop-opacity="0.01"/>
<stop offset="1" stop-color="white" stop-opacity="0.1"/>
</linearGradient>
<linearGradient id="paint2_linear_3022_13507" x1="22.4306" y1="31.6674" x2="22.0773" y2="32.4245" gradientUnits="userSpaceOnUse">
<stop offset="0.173306" stop-color="white" stop-opacity="0"/>
<stop offset="1" stop-color="white" stop-opacity="0.3"/>
</linearGradient>
<linearGradient id="paint3_linear_3022_13507" x1="5.46971" y1="23.7933" x2="5.11639" y2="24.5504" gradientUnits="userSpaceOnUse">
<stop offset="0.173306" stop-color="white" stop-opacity="0"/>
<stop offset="1" stop-color="white" stop-opacity="0.3"/>
</linearGradient>
<linearGradient id="paint4_linear_3022_13507" x1="52.7158" y1="40.1469" x2="52.3625" y2="40.904" gradientUnits="userSpaceOnUse">
<stop offset="0.173306" stop-color="white" stop-opacity="0"/>
<stop offset="1" stop-color="white" stop-opacity="0.3"/>
</linearGradient>
<linearGradient id="paint5_linear_3022_13507" x1="29.6963" y1="20.1591" x2="29.343" y2="20.9162" gradientUnits="userSpaceOnUse">
<stop offset="0.173306" stop-color="white" stop-opacity="0"/>
<stop offset="1" stop-color="white" stop-opacity="0.3"/>
</linearGradient>
<linearGradient id="paint6_linear_3022_13507" x1="0.625957" y1="32.8783" x2="0.272639" y2="33.6354" gradientUnits="userSpaceOnUse">
<stop offset="0.173306" stop-color="white" stop-opacity="0"/>
<stop offset="1" stop-color="white" stop-opacity="0.3"/>
</linearGradient>
<linearGradient id="paint7_linear_3022_13507" x1="43.8513" y1="38.4106" x2="40.8229" y2="42.6505" gradientUnits="userSpaceOnUse">
<stop stop-color="white" stop-opacity="0.3"/>
<stop offset="0.826694" stop-color="white" stop-opacity="0"/>
</linearGradient>
<linearGradient id="paint8_linear_3022_13507" x1="12.4562" y1="28.9214" x2="10.6896" y2="32.707" gradientUnits="userSpaceOnUse">
<stop stop-color="white" stop-opacity="0.3"/>
<stop offset="0.826694" stop-color="white" stop-opacity="0"/>
</linearGradient>
<linearGradient id="paint9_linear_3022_13507" x1="49.0989" y1="15.5962" x2="48.3923" y2="17.1104" gradientUnits="userSpaceOnUse">
<stop offset="0.173306" stop-color="white" stop-opacity="0"/>
<stop offset="1" stop-color="white" stop-opacity="0.3"/>
</linearGradient>
<linearGradient id="paint10_linear_3022_13507" x1="42.1892" y1="29.7754" x2="41.4826" y2="31.2896" gradientUnits="userSpaceOnUse">
<stop offset="0.173306" stop-color="white" stop-opacity="0"/>
<stop offset="1" stop-color="white" stop-opacity="0.3"/>
</linearGradient>
<linearGradient id="paint11_linear_3022_13507" x1="17.3613" y1="24.3169" x2="16.6547" y2="25.8311" gradientUnits="userSpaceOnUse">
<stop offset="0.173306" stop-color="white" stop-opacity="0"/>
<stop offset="1" stop-color="white" stop-opacity="0.3"/>
</linearGradient>
<linearGradient id="paint12_linear_3022_13507" x1="40.0169" y1="16.8076" x2="39.3102" y2="18.3219" gradientUnits="userSpaceOnUse">
<stop offset="0.173306" stop-color="white" stop-opacity="0"/>
<stop offset="1" stop-color="white" stop-opacity="0.3"/>
</linearGradient>
<linearGradient id="paint13_linear_3022_13507" x1="32.7473" y1="36.7954" x2="32.0407" y2="38.3096" gradientUnits="userSpaceOnUse">
<stop offset="0.173306" stop-color="white" stop-opacity="0"/>
<stop offset="1" stop-color="white" stop-opacity="0.3"/>
</linearGradient>
<linearGradient id="paint14_linear_3022_13507" x1="27.0923" y1="24.2779" x2="25.679" y2="27.3063" gradientUnits="userSpaceOnUse">
<stop stop-color="white" stop-opacity="0.3"/>
<stop offset="0.826694" stop-color="white" stop-opacity="0"/>
</linearGradient>
<linearGradient id="paint15_linear_3022_13507" x1="0.504739" y1="-0.201896" x2="0.151422" y2="0.555213" gradientUnits="userSpaceOnUse">
<stop offset="0.173306" stop-color="white" stop-opacity="0"/>
<stop offset="1" stop-color="white" stop-opacity="0.3"/>
</linearGradient>
<linearGradient id="paint16_linear_3022_13507" x1="0.504739" y1="-0.201896" x2="0.151422" y2="0.555213" gradientUnits="userSpaceOnUse">
<stop offset="0.173306" stop-color="white" stop-opacity="0"/>
<stop offset="1" stop-color="white" stop-opacity="0.3"/>
</linearGradient>
<linearGradient id="paint17_linear_3022_13507" x1="0.504739" y1="-0.201896" x2="0.151422" y2="0.555213" gradientUnits="userSpaceOnUse">
<stop offset="0.173306" stop-color="white" stop-opacity="0"/>
<stop offset="1" stop-color="white" stop-opacity="0.3"/>
</linearGradient>
<linearGradient id="paint18_linear_3022_13507" x1="0.504739" y1="-0.201896" x2="0.151422" y2="0.555213" gradientUnits="userSpaceOnUse">
<stop offset="0.173306" stop-color="white" stop-opacity="0"/>
<stop offset="1" stop-color="white" stop-opacity="0.3"/>
</linearGradient>
<linearGradient id="paint19_linear_3022_13507" x1="0.504739" y1="-0.201896" x2="0.151422" y2="0.555213" gradientUnits="userSpaceOnUse">
<stop offset="0.173306" stop-color="white" stop-opacity="0"/>
<stop offset="1" stop-color="white" stop-opacity="0.3"/>
</linearGradient>
<linearGradient id="paint20_linear_3022_13507" x1="3.02844" y1="8.7246e-08" x2="-9.32629e-08" y2="4.23981" gradientUnits="userSpaceOnUse">
<stop stop-color="white" stop-opacity="0.3"/>
<stop offset="0.826694" stop-color="white" stop-opacity="0"/>
</linearGradient>
<linearGradient id="paint21_linear_3022_13507" x1="2.5237" y1="-1.00948" x2="0.757109" y2="2.77607" gradientUnits="userSpaceOnUse">
<stop stop-color="white" stop-opacity="0.3"/>
<stop offset="0.826694" stop-color="white" stop-opacity="0"/>
</linearGradient>
<linearGradient id="paint22_linear_3022_13507" x1="1.00948" y1="-0.403791" x2="0.302844" y2="1.11043" gradientUnits="userSpaceOnUse">
<stop offset="0.173306" stop-color="white" stop-opacity="0"/>
<stop offset="1" stop-color="white" stop-opacity="0.3"/>
</linearGradient>
<linearGradient id="paint23_linear_3022_13507" x1="1.00948" y1="-0.403791" x2="0.302844" y2="1.11043" gradientUnits="userSpaceOnUse">
<stop offset="0.173306" stop-color="white" stop-opacity="0"/>
<stop offset="1" stop-color="white" stop-opacity="0.3"/>
</linearGradient>
<linearGradient id="paint24_linear_3022_13507" x1="1.00948" y1="-0.403791" x2="0.302844" y2="1.11043" gradientUnits="userSpaceOnUse">
<stop offset="0.173306" stop-color="white" stop-opacity="0"/>
<stop offset="1" stop-color="white" stop-opacity="0.3"/>
</linearGradient>
<linearGradient id="paint25_linear_3022_13507" x1="1.00948" y1="-0.403791" x2="0.302844" y2="1.11043" gradientUnits="userSpaceOnUse">
<stop offset="0.173306" stop-color="white" stop-opacity="0"/>
<stop offset="1" stop-color="white" stop-opacity="0.3"/>
</linearGradient>
<linearGradient id="paint26_linear_3022_13507" x1="1.00948" y1="-0.403791" x2="0.302844" y2="1.11043" gradientUnits="userSpaceOnUse">
<stop offset="0.173306" stop-color="white" stop-opacity="0"/>
<stop offset="1" stop-color="white" stop-opacity="0.3"/>
</linearGradient>
<linearGradient id="paint27_linear_3022_13507" x1="2.01896" y1="-0.807583" x2="0.605687" y2="2.22085" gradientUnits="userSpaceOnUse">
<stop stop-color="white" stop-opacity="0.3"/>
<stop offset="0.826694" stop-color="white" stop-opacity="0"/>
</linearGradient>
</defs>
</svg>
