<svg width="24" height="24" viewBox="0 0 24 24" fill="none" xmlns="http://www.w3.org/2000/svg">
<path fill-rule="evenodd" clip-rule="evenodd" d="M12 21.3748C17.1777 21.3748 21.375 17.1774 21.375 11.9998C21.375 6.82209 17.1777 2.62476 12 2.62476C6.82233 2.62476 2.625 6.82209 2.625 11.9998C2.625 17.1774 6.82233 21.3748 12 21.3748ZM16.305 9.61897C16.5434 9.31244 16.4882 8.87068 16.1817 8.63228C15.8752 8.39387 15.4334 8.44909 15.195 8.75561L11.4384 13.5855C11.3549 13.6929 11.1978 13.7068 11.0966 13.6158L8.72037 11.4772C8.43173 11.2174 7.98715 11.2408 7.72738 11.5294C7.4676 11.8181 7.491 12.2626 7.77964 12.5224L10.1559 14.6611C10.8638 15.2982 11.9637 15.2006 12.5485 14.4488L16.305 9.61897Z" fill="white"/>
</svg>
