
    <svg
      xmlns="http://www.w3.org/2000/svg"
      width="20"
      height="20"
      viewBox="0 0 20 20"
      fill="none"
    >
      <path
        d="M16.0568 4.44134C14.9485 3.92467 13.7485 3.54967 12.4985 3.33301C12.4765 3.33332 12.4555 3.34231 12.4401 3.35801C12.2901 3.63301 12.1151 3.99134 11.9985 4.26634C10.6726 4.06647 9.32431 4.06647 7.99847 4.26634C7.8818 3.98301 7.7068 3.63301 7.54847 3.35801C7.54014 3.34134 7.51514 3.33301 7.49014 3.33301C6.24014 3.54967 5.04847 3.92467 3.9318 4.44134C3.92347 4.44134 3.91514 4.44967 3.9068 4.45801C1.64014 7.84967 1.01514 11.1497 1.32347 14.4163C1.32347 14.433 1.3318 14.4497 1.34847 14.458C2.84847 15.558 4.29014 16.2247 5.71514 16.6663C5.74014 16.6747 5.76514 16.6663 5.77347 16.6497C6.1068 16.1913 6.4068 15.708 6.66514 15.1997C6.6818 15.1663 6.66514 15.133 6.6318 15.1247C6.1568 14.9413 5.7068 14.7247 5.26514 14.4747C5.2318 14.458 5.2318 14.408 5.2568 14.383C5.34847 14.3163 5.44014 14.2413 5.5318 14.1747C5.54847 14.158 5.57347 14.158 5.59014 14.1663C8.4568 15.4747 11.5485 15.4747 14.3818 14.1663C14.3985 14.158 14.4235 14.158 14.4401 14.1747C14.5318 14.2497 14.6235 14.3163 14.7151 14.3913C14.7485 14.4163 14.7485 14.4663 14.7068 14.483C14.2735 14.7413 13.8151 14.9497 13.3401 15.133C13.3068 15.1413 13.2985 15.183 13.3068 15.208C13.5735 15.7163 13.8735 16.1997 14.1985 16.658C14.2235 16.6663 14.2485 16.6747 14.2735 16.6663C15.7068 16.2247 17.1485 15.558 18.6485 14.458C18.6651 14.4497 18.6735 14.433 18.6735 14.4163C19.0401 10.6413 18.0651 7.36634 16.0901 4.45801C16.0818 4.44967 16.0735 4.44134 16.0568 4.44134ZM7.09847 12.4247C6.24014 12.4247 5.52347 11.633 5.52347 10.658C5.52347 9.68301 6.22347 8.89134 7.09847 8.89134C7.9818 8.89134 8.6818 9.69134 8.67347 10.658C8.67347 11.633 7.97347 12.4247 7.09847 12.4247ZM12.9068 12.4247C12.0485 12.4247 11.3318 11.633 11.3318 10.658C11.3318 9.68301 12.0318 8.89134 12.9068 8.89134C13.7901 8.89134 14.4901 9.69134 14.4818 10.658C14.4818 11.633 13.7901 12.4247 12.9068 12.4247Z"
        fill="#00C487"
      />
    </svg>
