<svg width="18" height="18" viewBox="0 0 18 18" fill="none" xmlns="http://www.w3.org/2000/svg">
<path fill-rule="evenodd" clip-rule="evenodd" d="M5.66797 0.666504C2.90654 0.666504 0.667969 2.90508 0.667969 5.66651V12.3332C0.667969 15.0946 2.90655 17.3332 5.66797 17.3332H12.3346C15.0961 17.3332 17.3346 15.0946 17.3346 12.3332V5.6665C17.3346 2.90508 15.0961 0.666504 12.3346 0.666504H5.66797ZM14.0013 4.83317C14.4615 4.83317 14.8346 4.46007 14.8346 3.99984C14.8346 3.5396 14.4615 3.1665 14.0013 3.1665C13.5411 3.1665 13.168 3.5396 13.168 3.99984C13.168 4.46007 13.5411 4.83317 14.0013 4.83317ZM13.168 8.99984C13.168 11.301 11.3025 13.1665 9.0013 13.1665C6.70012 13.1665 4.83464 11.301 4.83464 8.99984C4.83464 6.69865 6.70012 4.83317 9.0013 4.83317C11.3025 4.83317 13.168 6.69865 13.168 8.99984ZM9.0013 11.4998C10.382 11.4998 11.5013 10.3805 11.5013 8.99984C11.5013 7.61913 10.382 6.49984 9.0013 6.49984C7.62059 6.49984 6.5013 7.61913 6.5013 8.99984C6.5013 10.3805 7.62059 11.4998 9.0013 11.4998Z" fill="#00C487"/>
</svg>
