<svg width="25" height="24" viewBox="0 0 25 24" fill="none" xmlns="http://www.w3.org/2000/svg">
<path d="M10.5328 3.27141C11.3375 1.5762 13.6625 1.5762 14.4672 3.27141L15.8579 6.20118C16.1774 6.87435 16.7951 7.34094 17.5096 7.44888L20.6193 7.91869C22.4187 8.19053 23.1371 10.4895 21.8351 11.8091L19.5849 14.0896C19.0679 14.6136 18.832 15.3685 18.954 16.1084L19.4852 19.3285C19.7926 21.1918 17.9116 22.6126 16.3022 21.7329L13.5208 20.2126C12.8817 19.8633 12.1183 19.8633 11.4792 20.2126L8.69776 21.7329C7.08839 22.6126 5.20742 21.1918 5.51479 19.3286L6.04599 16.1084C6.16804 15.3685 5.93211 14.6136 5.41508 14.0896L3.16488 11.8091C1.86287 10.4895 2.58133 8.19053 4.38066 7.91869L7.49037 7.44888C8.20489 7.34094 8.82257 6.87435 9.14211 6.20118L10.5328 3.27141Z" fill="#00C88C"/>
</svg>
